<svg id="Layer_1" data-name="Layer 1" xmlns="http://www.w3.org/2000/svg" viewBox="0 0 512 512"><defs><style>.cls-1{fill:#727272;}</style></defs><title>festive-bow-handdrawn</title><path class="cls-1" d="M506.56,249.84c-.49-.52-1.39-.95-1.82-.72a2.58,2.58,0,0,0-.84,1.91c-.18,4.15.62,8.06.41,12.22a23,23,0,0,1-2,8.71,28.87,28.87,0,0,1-4.63,7.61,12.27,12.27,0,0,1-3.14,2.36,5.9,5.9,0,0,1-3.65.25,9,9,0,0,0-6.6,1.39,52,52,0,0,1-19.48,4.35,144.41,144.41,0,0,1-53-7.63c-2-.72-4.15-1-6.21-1.54-7.51-1.86-15.08-3.72-22.42-6.26-15.45-5.45-30.54-11.78-45.84-17.79-4.16-1.63-8.48-3.13-12.61-5a53.73,53.73,0,0,1-6-3.2c-1-.61-1.89-1.25-2.79-1.95l-1.33-1.08c-.45-.38-.94-.79-.88-1s-.36-.35-.57-.48c-.68-.5-1.52-.77-1.45-1.22a8.48,8.48,0,0,0,.83-.89l.31-.43a6.62,6.62,0,0,0,.58-1.16,45.24,45.24,0,0,0,4.22-18.65l.2-16c.12-10.68.17-21.36,0-32l-.25-18.68-.06-3.24-.07-.69a10,10,0,0,0-.32-1.48c0-.08,0-.08,0-.12h.08c3.3.54,6.59,1.14,9.86,1.87A148.59,148.59,0,0,0,347.25,151l1.24,0,3,.32c5.44.35,10.89.46,16.33.48s10.88-.76,16.32-1.11c1.68-.15,3.35-.23,5-.5a211.53,211.53,0,0,0,59.1-14.27c3.25-1.43,6.5-2.87,9.71-4.39.33-.15.63-.32.95-.49,2.12-1,4.24-2,6.27-3.23a15.53,15.53,0,0,0,5.58-4.24c2.28-1.19,4.6-2.32,6.92-3.5a35.12,35.12,0,0,0,3.23-1.7A135.88,135.88,0,0,0,476,139.43c-.2,1.41-.37,2.82-.47,4.24-.81,10.5-1.08,20.92.7,31.78.52,3.31.6,6.67,1.32,9.9,3.7,16.73,8.53,33,13.6,49.1a34.34,34.34,0,0,0,10.47,15.64c.35-1,.83-1.72.73-2.36a75.6,75.6,0,0,0-1.6-8.7c-2.59-9.37-5.19-18.74-7.52-28.16L492.11,207c-3.16-12.52-6.25-25.23-7.72-37.93-.57-8,0-16,.35-24a110,110,0,0,1,3.07-19.77,129.92,129.92,0,0,1,5.32-16.41q5.12-4.51,9.88-9.46a48.65,48.65,0,0,0,5.44-7.25c5.44-8,4.14-18.76-.5-25.81a4.88,4.88,0,0,0-1.85-1.76,2,2,0,0,0-1.74-.06,2.26,2.26,0,0,0-.72,1.59c0,2.93,1,5.31,1.33,8.06a19.9,19.9,0,0,1-2.21,11.45,4.2,4.2,0,0,1-4.55,2.43,4.39,4.39,0,0,0-4.36,1.62A115.77,115.77,0,0,1,483.52,99c-9.15,7.27-18.66,14.65-29.91,18.56a24.41,24.41,0,0,0-3.7,1.89,103.59,103.59,0,0,1-13.37,6.3c-2.6.73-5.15,1.61-7.77,2.23l-8.28,1.84c-4.46,1.11-9,1.78-13.48,2.93s-9,2-13.51,3l-1.38.28a16.8,16.8,0,0,1-4-1,3.57,3.57,0,0,0-1.55,0l-5.94.34c-2,0-4,0-6,.09l-10.2.35-10.22-.36c-6.81,0-13.61-.93-20.44-1.19-4-.08-7.94-.76-11.91-1.22l-6-.72a14.83,14.83,0,0,1-1.69-.15l-.25-.66-.82-1.89-.49-1-.16-.3-.14-.34a4,4,0,0,1,1.08-.89l.15-.1.57-.54,1.15-1.07c.78-.7,1.54-1.42,2.35-2.08,5.27-4.29,9.89-9.14,15-13.59.77-.69,1.49-1.44,2.31-2.09a276.46,276.46,0,0,1,30.44-21.39c3.27-1.89,6.44-3.95,9.74-5.78,2.09-1.22,4.16-2.56,3.43-6.25a2.29,2.29,0,0,1,1.44-2.75c1.4-.73,2.81-1.43,4.16-2.26a27.61,27.61,0,0,1,13.35-4.5,24.63,24.63,0,0,0,5-1.34c1.81-.58,3.54-1.39,5.34-2,9.45-2.71,19-5,28.6-6l2.5-.45,9.27-1.09c3.09-.11,6.19-.29,9.27-.33,2,.08,4,.53,5.91.63,10,.2,20.13,1.92,27.34,7.36,2.83,2.18,6.16,3,10.81,4.57.27-.8.67-1.43.54-1.84a15.82,15.82,0,0,0-2.76-5.42c-4.37-5.22-10.44-8.64-16.66-10.88-.88-.28-1.8-.42-2.68-.68-8.52-2.32-17.27-2.68-25.89-2.62a78.94,78.94,0,0,0-16.18,1.08c-4.36,1.09-8.86,1.54-13.22,2.65l-7.89,1.85c-2.59.76-5.17,1.56-7.7,2.49a78.87,78.87,0,0,1-12.86,4,14.24,14.24,0,0,0-3,1.14c-6.17,3-12,6.54-17.95,9.89a42,42,0,0,1-10.12,5,67.76,67.76,0,0,0-10.85,4.38L344,82.75a72.59,72.59,0,0,0-14.85,11.91c-4.47,4.23-8.7,8.75-13.39,12.7-2.86,2.59-5.87,5-8.82,7.58l-2.17,1.94h0a46,46,0,0,0-14.93-10.42,43.62,43.62,0,0,0-11.52-3.08,56.14,56.14,0,0,0-5.87-.32l-4.93.12-11.5.25-17.91.4a55.24,55.24,0,0,0-20.65,4.68,37.68,37.68,0,0,0-13.55,10.75c-3.93-4.4-8.21-8.48-12.47-12.57-.66-.6-1.42-1.1-2.1-1.69-3.21-2.86-6.49-5.62-9.89-8.25s-6.71-5.35-10.09-8a106.92,106.92,0,0,0-13-9.52c-3.89-2.19-7.61-4.71-11.41-7.06-4.68-2.64-9.17-5.68-14.14-7.78a94,94,0,0,1-11.9-6.3A14.33,14.33,0,0,0,116,56.63l-9.8-3.08-9.89-2.68c-3.63-1-7.46-1.63-10.75-3.52a62,62,0,0,0-11-4.16c-3.85-.82-7.71-1.81-11.66-2.37a53.47,53.47,0,0,0-19.58.61,110.12,110.12,0,0,0-18.79,5.44C15.77,50.28,6.92,56.18,2.22,66.3A23.77,23.77,0,0,0,.23,73a29.53,29.53,0,0,0,2.3,15.5,32.24,32.24,0,0,0,4,6.8c.34.48.74.9,1.13,1.35.1.35.28.67.35,1,1.84,1.91,3.65,3.86,5.56,5.66a75.17,75.17,0,0,1,4.69,11.75c3.64,12,4.68,24.58,4.48,37,0,2.58-.23,5.16-.29,7.72-.09,2.87-.24,5.78-.51,8.52-.3,2.45-.82,5.66-1.34,8.49-1,5.85-2.33,11.69-3.94,17.45C14,203.78,11.73,213.4,9.4,223L5.74,237.43l-2,7.16-1.09,3.62c-.43,1.39-.79,2.85-1.1,4.3a35.47,35.47,0,0,0,3,23.58c3.49,7.35,9.63,13.35,16.34,17.53,1.29.95,3,1.15,4.44,1.61,2.65,1,5.39,1.2,7.89,2,8.95,2.76,18.06,3.35,26.89,3.07a155.26,155.26,0,0,0,26-3.32c10.42-2.19,20.67-4.25,30.91-6.55a46,46,0,0,0,9.42-3c2.75-1.32,5.55-2.44,8.36-3.49-.2,4.47-.68,8.93-1.25,13.37-.78,6.32-2.12,12.54-3,18.82a65.81,65.81,0,0,1-4.12,15.29,27,27,0,0,0-1.12,3.6A224.86,224.86,0,0,1,119,358.33c-1.49,4.17-3,8.55-5.58,12.06-5.86,7.93-8.08,13-17.95,28.14-3.14,4.9-6.22,9.8-8.91,14.51l.76.07,1.22-.23,2.51-.51,5-1.07,9.75-2.28c5.49-1.33,11.2-2.95,15.53-4.23l10.61-3.16c5-1.41,10.06-2.83,15.07-4.38l7.5-2.43,3.49-1.21,1.05-.17.93-.09.2.49.82,1.67,3.3,6.3c2.16,4.22,4.23,8.48,6,12.85,1.37,3.32,2.84,6.58,4.36,9.82l5.43,11.39c5.6,12,10.77,24.11,15.69,36,.72-1.5,1.47-4,2.21-6,3-8.46,6-17.94,8.25-25.84,1.2-4.07,2.4-8,3.72-11.92a68.53,68.53,0,0,1,2.69-7.61,15,15,0,0,0,.51-3.19,45,45,0,0,1,1-5.67,175.34,175.34,0,0,0,8.89-39.43c.94-8.27,2.22-16.4,3.44-24.63a30.71,30.71,0,0,0,.22-7.85c-1.05-7.47-.4-14.79.09-22.23a55.07,55.07,0,0,0,.22-6.56c-.33-5.24-.92-10.46-1.42-15.68-.74-5.2-1.31-10.41-2.21-15.57-.48-2.79-1.25-5.56-1.47-8.37a52.79,52.79,0,0,0-2.68-11.74c1,.52,2.07,1.07,3.15,1.51a34.94,34.94,0,0,0,6.77,2.53,45.94,45.94,0,0,0,9.29.71l7.83-.39,15.48-.76c4.16-.17,7.62-2.26,11-5.55-.55-.64-.86-1.3-1.25-1.39a27.14,27.14,0,0,0-5.42-1c-6-.18-12-.18-18-.22-.83,0-1.67.13-2.5.14-4,0-8,.31-11.76-.19A29.28,29.28,0,0,1,223,251.5c-4.23-2.32-7.68-5.61-11-9a29.27,29.27,0,0,1-6-10.17c-1.7-4.52-2-9.2-2.23-14.08a52.71,52.71,0,0,1,.67-12.47,12.23,12.23,0,0,0,.17-3c-.29-5-.64-10-.9-14.94l.06-8.17-.13-3.64a17.64,17.64,0,0,1,.55-2.69c2.08-7.05,2.37-14.22,3.28-21.35.2-1.42.27-3,.37-4.3s.07-2.46.28-3.66a41.1,41.1,0,0,1,1.23-7.31A23.55,23.55,0,0,1,217,124.37c5.36-4.61,12.43-6.42,18.91-6.43,1.48.12,2.51.18,4.29.24,7.5.2,15,0,22.5.59,3.09.26,6.18.34,9.26.33l3.82.05c1.19.17,2.42.18,3.61.42a25.31,25.31,0,0,1,13.21,6.14c4.79,4.17,9.85,9.76,9.73,16.71-.05.66.44,1.27.64,1.93a10,10,0,0,1,.63,3.6A200.36,200.36,0,0,0,302,178.9a149.5,149.5,0,0,1-1.12,19,17.93,17.93,0,0,0,.13,6c1.32,5.55.81,11.55,0,16.7-.24,1.26-.58,2.48-.77,3.71a28.44,28.44,0,0,1-7.54,16.27,16.76,16.76,0,0,1-3.73,3.41c-4.52,2.28-8.4,5.9-13.93,7.8a4,4,0,0,0-1.56,1.07,2.58,2.58,0,0,0-.61,1.57,1.87,1.87,0,0,0,.91,1.3c2.37,1.21,4.9.62,7.29,0A52.51,52.51,0,0,0,291.26,252a6,6,0,0,1,5.28-.16A3.74,3.74,0,0,0,299,252c-.05.2-.14.39-.19.59-1,3.74-1.65,7.54-2.35,11.34s-1.38,7.6-1.89,11.43c-.16,1.06-.17,2.14-.31,3.21-1.32,10.22-1.81,20.51-2.63,30.76-.33,6.42-1.07,12.83-.59,19.29l.53,16.06c.27,6.43.51,12.89,1.4,19.27a119.59,119.59,0,0,1,1.41,16,20.32,20.32,0,0,0,.42,3.82c1.68,8,3.73,15.91,5.84,23.79,1.05,4.37,2.42,8.79,2.62,13.22A52.72,52.72,0,0,0,304,428c.6,3,1.34,6.1,2.14,9.32,1.52,6.39,3.64,13.32,5.91,21.08l1.55,5.13.8,2.5a6.65,6.65,0,0,0,.81,2c3.39-8,6.89-17.54,10-25.87,1-2.81,2.08-5.5,3.12-8.07l2.48-6.13c1.38-3.33,2.9-6.59,4.56-9.77,2.37-4.5,4.95-8.89,7.61-13.21l4.05-6.45,2.06-3.2a2.59,2.59,0,0,1,.56-.72l.36-.37.9-.81.17.11c.51.3,1,.55,1.46.78l6.41,2.82,13.74,5.71c3.16,1.3,6.38,2.46,9.65,3.44,1.63.5,3.27,1,4.92,1.38l6.9,1.66c11.51,2.55,22.61,4.14,32.9,5.69l-7.33-12.38c-2.33-4.14-4.84-8.35-7.32-12.45-1.26-2-2.39-4.06-3.46-6.05L407,380.81a60,60,0,0,1-5.89-14.08,13.9,13.9,0,0,0-1.52-2.7,28.15,28.15,0,0,1-2.34-5c-3.27-12.53-6.56-24.91-9.49-37.42a125.11,125.11,0,0,1-2.93-23.37,27.36,27.36,0,0,0-1-7.35,44.19,44.19,0,0,1-1.13-5.21c6,2.15,12,4.33,18,6.45a44,44,0,0,0,9.65,2.44c9.49,1,18.52,3.47,27.94,5.51a54.38,54.38,0,0,0,8.42,1.4,117.06,117.06,0,0,0,21-.09c7.11-.73,14.47-2.07,21.64-5.48,1.92-.91,3.77-2.16,5.62-3.27l5.26-4.1c5.36-4.53,8.38-11,9.76-17.3a36.27,36.27,0,0,0-1.75-18.41A8.93,8.93,0,0,0,506.56,249.84ZM14.78,73.19c.73-4,4.07-8.28,8.14-10.74A51,51,0,0,1,38.55,56c.91-.2,1.84-.4,2.77-.55A80.66,80.66,0,0,1,58.82,55a78.74,78.74,0,0,1,8.9.87,89,89,0,0,1,8.87,1.49c3.61.7,7.2,1.5,10.78,2.43,2.31.56,4.7.93,6.74-2.1A2.27,2.27,0,0,1,97,56.81c1.51.44,3,.93,4.54,1.27a28,28,0,0,1,12.53,6.37,17.93,17.93,0,0,0,4.45,2.66c1.69.87,3.53,1.45,5.17,2.43a242.77,242.77,0,0,1,25,15.84l2.18,1.4c5.31,3.57,10.61,7.17,15.64,11.14,1.67,1.23,3,2.91,4.63,4.17a276,276,0,0,1,24.92,20.48,14,14,0,0,0,3.72,2.6c-.49.83-1,1.66-1.38,2.53a46.24,46.24,0,0,0-4,10.53l-2.74.33a5.73,5.73,0,0,1-.84-.83c-1.44-1.85-3.17-1.82-4.95-1.52-4.65.89-9.37,1.13-14.07,1.59q-8.89.93-17.81,1.15a72.2,72.2,0,0,1-17.77-1.22,24.81,24.81,0,0,0-4.18-.1c-5-.23-10.11-.47-15.11-1.16-5.23-1-10.39-2.23-15.57-3.36-5.07-1.54-10.26-2.64-15.33-4.19-2.76-.82-5.66-1.44-8.42-2.45a17.64,17.64,0,0,1-7.24-5.15,3.51,3.51,0,0,0-1.34-.75c-3.59-1.63-6.9-3.81-10.46-5.47-12-6.16-22.89-14.12-33.16-22.55a61.24,61.24,0,0,1-7.69-7.2A15,15,0,0,1,14.78,73.19Zm105.3,201.43a58.33,58.33,0,0,0-6.1,2c-7.37,2.36-14.72,4.94-22.28,6.48-15.88,3.28-32.07,5.4-47.62,4.43a50.67,50.67,0,0,1-12.41-2c-3.75-1.49-7.44-3.62-9-7.12-.29-.51-.9-.86-1.24-1.36a23,23,0,0,1-5.77-12.47A27.15,27.15,0,0,1,17,252.12l4.86-15.44c3.11-10.32,6-20.74,8.25-31.33,1.35-6.17,2.68-12.36,3.79-18.61.88-4.82,1.6-9.68,2.28-14.63a125.28,125.28,0,0,0,.66-15.46,218.14,218.14,0,0,0-2.42-30.15c-.38-2.57-.9-5.11-1.51-7.63,5,3.43,10.12,6.7,15.44,9.63a158.26,158.26,0,0,0,16.91,8.13c3.41,1.25,6.95,2.42,9.72.59a8.19,8.19,0,0,1,1.87.57q3.87,1.84,7.84,3.51c2.66,1,5.4,1.86,8.13,2.72a109.8,109.8,0,0,0,16.73,3.81c6.93,1.27,13.79,2.32,20.69,3.87a21.91,21.91,0,0,0,6.62.22,40.54,40.54,0,0,1,9.39-.32c3.11.09,6.21.31,9.33.63a39.16,39.16,0,0,0,5.52.32c4.43-.07,8.79-.81,13.16-1.27,4.36-.61,8.77-.86,13.06-1.78,1.94-.36,3.85-.85,5.79-1.13,0,.14,0,.29,0,.44l-.47,18c-.09,3.67-.17,7.34-.1,11,0,2,.17,4.1,2.49,5.31l.58,18.71a32.32,32.32,0,0,0,.54,4.94c0,.72-.07,1.44-.11,2.14-.1,1.83,0,3.67-.05,5.49-.08,2.5-.35,4.46-.28,7.42a39.59,39.59,0,0,0,.8,8.31,43.86,43.86,0,0,0,6.35,15.63c.09.14.2.26.3.4a25.81,25.81,0,0,0-2.54.86,5.4,5.4,0,0,1-1.56-.54c-2.48-1.13-5-.23-7.49.91-6.6,3-13.22,6-19.93,8.76C154.73,263.11,137.93,270.63,120.08,274.62Zm91.15-19.14c1.1,4.55,1.6,9.23,2.24,13.86a6.55,6.55,0,0,1-1.93,5.9c-1.82,1.69-1.76,3.75-1.42,5.9.85,5.61,1.51,11.25,2,16.9,1.15,14.22,2.53,28.63.38,42.86a36.1,36.1,0,0,0-.11,5c-.19,6.08-.13,12.22-1,18.26-1.54,12.76-4.36,25.27-6.69,37.9-.71,3.42-1.18,7-2.09,10.41a26.5,26.5,0,0,1-4.78,9.56,5.16,5.16,0,0,0-.68,1.74c-.83,2.05-1.49,3-1.91,4.25-.31.7-.62,1.71-.9,1.82l-1.16-3.45-.3-.73-1.76-3.83q-2-4.29-4.16-8.51l-6.84-13.25-5.44-9.86L166,374.61,156.69,379l-4.58,2.1-2.6,1.06a110.46,110.46,0,0,1-10.63,3.61c-3.88,1.11-7.7,2.32-11.52,3.52l-5.74,1.78-4.69,1.35a7.31,7.31,0,0,1-.76.23c-.57,0-1.11,0-1.11-.18a10.39,10.39,0,0,1,.88-1l.15-.12c.07-.11-.1.25.16-.24l.87-1.65q1.78-3.28,3.37-6.66c2.18-4.34,4.1-8.81,5.91-13.32,1.08-2.92,2.1-6-.75-8.51-1.16-1-1-2.29-.56-3.59.61-1.85,1.27-3.69,1.78-5.56a57.63,57.63,0,0,1,6.44-16.25,26.68,26.68,0,0,0,2.17-6.11c.7-2.29,1-4.68,1.62-7a284,284,0,0,0,6.83-36.71c.13-1.09.21-2.18.24-3.28l.08-1.76q4.27-1.3,8.57-2.53a72.32,72.32,0,0,0,7.82-2.52c12.18-5,24.15-10.34,36-15.94l4.76-2.39,2.39-1.17,4.09-1.84,2.11-.95.91.75C211,254.61,211.12,255,211.23,255.47Zm173,100.72c2.51,6.8,6.36,13.27,6.36,21a5.64,5.64,0,0,0,.64,1.85l2.88,7,2.28,5,1.27,2.72a17.32,17.32,0,0,1-2.77-.69L383.39,390c-4.57-1.31-9.07-2.87-13.54-4.48-3.18-1.17-6.36-2.37-9.49-3.69l-1.18-.49-1.66-.73-4.24-2-8.4-4-9.34,16.63q-3.07,5.38-6.3,10.68c-4.43,7.24-7.82,15-11.29,22.67l-.38.87,0,.12a.85.85,0,0,1-.1.23c-.46.68-.74,1-.91,1a6.54,6.54,0,0,1-.14-1.14l-.34-1.93c.16.49-.64-2.67-1.18-4.72l-1.8-6.63c-.82-2.82-1.55-5.73-5.36-6.22-1.55-.2-2.06-1.33-2.39-2.63L303.92,398c-1.48-5.55-2.4-11.16-1.51-16.94a26,26,0,0,0-.33-6.26c-.28-2.29-.61-4.58-.81-6.88a338,338,0,0,1-.91-35.82c0-1,0-2.09,0-3.14-.15-7.73.05-15.47.52-23.19.18-2.5.83-5,.91-7.47a357.13,357.13,0,0,1,3.7-38.73,21.27,21.27,0,0,0,.05-6.26c4.21,2,5.74,2.87,8.39,4.4a23.51,23.51,0,0,0,3.83,1.31,53.41,53.41,0,0,1,6.78,2.53,310.64,310.64,0,0,0,45.17,19.46l.06,1.88c.22,3.68.21,7.38.26,11.09a38.6,38.6,0,0,0,.7,5.17c1,6.23,2.49,12.36,3.52,18.55C376.51,330.78,379.48,343.75,384.19,356.19Z"/></svg>